<?xml version="1.0" standalone="no"?>
<!DOCTYPE svg PUBLIC "-//W3C//DTD SVG 20010904//EN"
 "http://www.w3.org/TR/2001/REC-SVG-20010904/DTD/svg10.dtd">
<svg version="1.0" xmlns="http://www.w3.org/2000/svg"
 width="512.000000pt" height="512.000000pt" viewBox="0 0 512.000000 512.000000"
 preserveAspectRatio="xMidYMid meet">
<metadata>
Created by potrace 1.11, written by Peter Selinger 2001-2013
</metadata>
<g transform="translate(0.000000,512.000000) scale(0.100000,-0.100000)"
fill="#000000" stroke="none">
<path d="M1180 4034 c-14 -2 -59 -9 -100 -15 -41 -6 -114 -24 -162 -40 -632
-206 -974 -885 -761 -1509 139 -407 495 -711 921 -785 71 -13 268 -15 1238
-15 1093 0 1158 1 1251 19 127 25 206 52 326 114 l98 50 16 -24 c9 -13 156
-164 327 -335 205 -204 325 -317 351 -329 55 -25 148 -24 200 3 85 43 138 125
139 212 0 107 -1 110 -333 443 -168 169 -319 317 -337 329 l-31 21 48 82 c108
188 160 382 160 590 0 138 -11 217 -46 340 -56 191 -156 358 -304 505 -169
168 -353 268 -601 326 -69 16 -166 18 -1225 20 -632 1 -1161 0 -1175 -2z
m1480 -241 c-237 -183 -396 -449 -446 -745 -30 -181 -7 -414 57 -588 74 -198
218 -392 383 -517 34 -26 66 -50 71 -55 6 -5 -319 -7 -785 -5 -853 4 -829 3
-984 57 -299 103 -545 377 -621 691 -23 94 -30 264 -15 356 57 360 295 652
628 773 159 58 168 58 992 59 l755 1 -35 -27z m955 -17 c291 -86 518 -291 629
-569 131 -329 57 -721 -187 -983 -88 -95 -169 -155 -281 -209 -138 -67 -217
-86 -381 -92 -117 -4 -155 -2 -232 15 -535 119 -859 655 -713 1180 86 309 330
559 637 652 111 34 158 39 303 36 111 -3 151 -8 225 -30z"/>
<path d="M1152 3366 c-36 -19 -62 -66 -62 -111 0 -74 51 -124 128 -125 122 -1
177 136 88 217 -30 28 -43 33 -83 33 -27 -1 -58 -6 -71 -14z"/>
<path d="M1452 3366 c-36 -19 -62 -66 -62 -111 0 -113 123 -172 208 -100 63
53 66 133 7 192 -28 28 -40 33 -81 33 -27 -1 -59 -6 -72 -14z"/>
<path d="M853 3071 c-18 -11 -39 -34 -48 -50 -59 -115 72 -239 182 -171 71 43
84 144 25 203 -40 40 -111 48 -159 18z"/>
<path d="M1165 3080 c-38 -15 -67 -57 -72 -103 -10 -86 53 -152 136 -144 56 6
92 34 111 85 13 37 13 47 0 84 -25 71 -106 107 -175 78z"/>
<path d="M1449 3073 c-39 -24 -59 -65 -59 -118 0 -40 5 -52 33 -80 78 -78 187
-49 219 56 31 106 -98 201 -193 142z"/>
<path d="M1744 3071 c-43 -26 -68 -90 -54 -140 28 -104 150 -135 219 -55 25
28 31 43 31 82 -1 26 -6 57 -14 70 -32 59 -122 80 -182 43z"/>
<path d="M849 2777 c-67 -45 -75 -139 -18 -196 54 -55 129 -53 186 4 29 29 33
39 33 85 0 47 -4 56 -39 91 -33 34 -45 39 -83 39 -30 0 -56 -8 -79 -23z"/>
<path d="M1153 2780 c-85 -51 -81 -179 6 -225 115 -59 239 72 171 182 -37 61
-116 81 -177 43z"/>
<path d="M1464 2790 c-11 -4 -33 -23 -48 -41 -25 -29 -28 -39 -24 -88 4 -45
10 -59 36 -82 58 -52 134 -50 183 2 96 103 -16 262 -147 209z"/>
<path d="M1749 2783 c-85 -52 -78 -182 11 -228 118 -61 236 80 162 193 -33 50
-121 68 -173 35z"/>
<path d="M1163 2495 c-90 -39 -96 -173 -10 -225 61 -38 133 -21 174 39 44 65
18 157 -52 187 -42 17 -71 17 -112 -1z"/>
<path d="M1463 2495 c-62 -27 -93 -123 -59 -183 51 -93 200 -77 235 25 13 37
13 45 -3 88 -15 38 -26 51 -60 66 -49 22 -70 23 -113 4z"/>
<path d="M3460 3379 c-38 -8 -86 -55 -96 -94 -10 -41 5 -92 36 -124 81 -81
220 -23 220 92 0 86 -74 144 -160 126z"/>
<path d="M3111 3355 c-63 -53 -63 -146 0 -199 24 -20 41 -26 80 -26 80 0 129
47 129 125 0 78 -49 125 -129 125 -38 0 -56 -6 -80 -25z"/>
<path d="M2828 3074 c-36 -19 -58 -63 -58 -114 0 -120 137 -174 217 -86 28 30
33 43 33 83 -1 27 -6 58 -14 71 -31 56 -118 79 -178 46z"/>
<path d="M3120 3068 c-68 -46 -77 -139 -18 -197 54 -53 122 -54 180 -2 26 23
32 37 36 83 4 52 2 58 -30 93 -29 31 -42 38 -84 42 -40 4 -55 0 -84 -19z"/>
<path d="M3423 3070 c-93 -57 -79 -194 25 -230 37 -13 47 -13 84 0 79 28 111
117 68 187 -37 61 -116 81 -177 43z"/>
<path d="M3698 3050 c-39 -39 -40 -42 -36 -97 4 -48 10 -61 36 -84 57 -51 129
-50 181 2 83 83 23 219 -97 219 -38 0 -50 -5 -84 -40z"/>
<path d="M2834 2784 c-40 -20 -64 -63 -64 -117 0 -136 187 -175 242 -50 52
117 -62 224 -178 167z"/>
<path d="M3123 2779 c-44 -28 -69 -95 -54 -142 34 -102 152 -129 221 -51 52
60 37 158 -30 198 -38 22 -98 20 -137 -5z"/>
<path d="M3420 2778 c-50 -34 -70 -93 -50 -150 50 -140 250 -101 250 50 0 34
-6 49 -33 78 -28 30 -42 37 -83 41 -40 4 -55 0 -84 -19z"/>
<path d="M3723 2780 c-85 -51 -81 -179 6 -225 115 -59 239 72 171 182 -37 61
-116 81 -177 43z"/>
<path d="M3134 2494 c-62 -30 -88 -128 -49 -187 50 -77 180 -75 220 3 60 117
-55 242 -171 184z"/>
<path d="M3453 2503 c-34 -7 -81 -59 -89 -98 -9 -50 2 -83 41 -122 28 -28 40
-33 80 -33 57 0 100 23 120 66 33 70 5 152 -60 180 -34 14 -50 15 -92 7z"/>
<path d="M1084 1411 c-72 -44 -63 -141 17 -181 121 -62 379 -145 571 -184 586
-119 1164 -70 1709 145 137 54 159 72 161 132 1 18 -4 43 -11 55 -13 24 -60
52 -88 52 -9 0 -74 -22 -143 -50 -208 -81 -403 -131 -685 -175 -88 -14 -540
-13 -652 1 -242 29 -499 95 -706 180 -59 24 -116 44 -125 44 -9 0 -31 -9 -48
-19z"/>
</g>
</svg>
